ffmpeg version 3.4.8-0ubuntu0.2 Copyright (c) 2000-2020 the FFmpeg developers
  built with gcc 7 (Ubuntu 7.5.0-3ubuntu1~18.04)
  configuration: --prefix=/usr --extra-version=0ubuntu0.2 --toolchain=hardened --libdir=/usr/lib/x86_64-linux-gnu --incdir=/usr/include/x86_64-linux-gnu --enable-gpl --disable-stripping --enable-avresample --enable-avisynth --enable-gnutls --enable-ladspa --enable-libass --enable-libbluray --enable-libbs2b --enable-libcaca --enable-libcdio --enable-libflite --enable-libfontconfig --enable-libfreetype --enable-libfribidi --enable-libgme --enable-libgsm --enable-libmp3lame --enable-libmysofa --enable-libopenjpeg --enable-libopenmpt --enable-libopus --enable-libpulse --enable-librubberband --enable-librsvg --enable-libshine --enable-libsnappy --enable-libsoxr --enable-libspeex --enable-libssh --enable-libtheora --enable-libtwolame --enable-libvorbis --enable-libvpx --enable-libwavpack --enable-libwebp --enable-libx265 --enable-libxml2 --enable-libxvid --enable-libzmq --enable-libzvbi --enable-omx --enable-openal --enable-opengl --enable-sdl2 --enable-libdc1394 --enable-libdrm --enable-libiec61883 --enable-chromaprint --enable-frei0r --enable-libopencv --enable-libx264 --enable-shared
  libavutil      55. 78.100 / 55. 78.100
  libavcodec     57.107.100 / 57.107.100
  libavformat    57. 83.100 / 57. 83.100
  libavdevice    57. 10.100 / 57. 10.100
  libavfilter     6.107.100 /  6.107.100
  libavresample   3.  7.  0 /  3.  7.  0
  libswscale      4.  8.100 /  4.  8.100
  libswresample   2.  9.100 /  2.  9.100
  libpostproc    54.  7.100 / 54.  7.100
[rawvideo @ 0x55d7bdc34a20] Estimating duration from bitrate, this may be inaccurate
Input #0, rawvideo, from '../../SVC-Encoder-20220109T061506Z-001/SVC-Encoder/Dataset/RollerCoaster/6f_2x2/tile_yuv/f0_t2_480x480.yuv':
  Duration: 00:00:10.00, start: 0.000000, bitrate: 82944 kb/s
    Stream #0:0: Video: rawvideo (I420 / 0x30323449), yuv420p, 480x480, 82944 kb/s, 30 tbr, 30 tbn, 30 tbc
Stream mapping:
  Stream #0:0 -> #0:0 (rawvideo (native) -> h264 (libx264))
Press [q] to stop, [?] for help
[libx264 @ 0x55d7bdc41c60] using cpu capabilities: MMX2 SSE2Fast LZCNT SSSE3 SSE4.2 AVX
[libx264 @ 0x55d7bdc41c60] profile High, level 3.0
Output #0, rawvideo, to 'RollerCoaster_f0_t2_480x480_x264_QP_24.h264':
  Metadata:
    encoder         : Lavf57.83.100
    Stream #0:0: Video: h264 (libx264), yuv420p, 480x480, q=-1--1, 30 fps, 30 tbn, 30 tbc
    Metadata:
      encoder         : Lavc57.107.100 libx264
    Side data:
      cpb: bitrate max/min/avg: 0/0/0 buffer size: 0 vbv_delay: -1
frame=  100 fps=0.0 q=30.0 PSNR=Y:nan U:nan V:nan *:nan size=     168kB time=00:00:01.90 bitrate= 723.0kbits/s speed=3.77x    frame=  164 fps=163 q=30.0 PSNR=Y:nan U:nan V:nan *:nan size=     256kB time=00:00:04.03 bitrate= 520.0kbits/s speed=   4x    frame=  228 fps=151 q=30.0 PSNR=Y:nan U:nan V:nan *:nan size=     256kB time=00:00:06.16 bitrate= 340.1kbits/s speed=4.08x    frame=  298 fps=147 q=30.0 PSNR=Y:nan U:nan V:nan *:nan size=     512kB time=00:00:08.50 bitrate= 493.4kbits/s speed= 4.2x    frame=  300 fps=131 q=30.0 LPSNR=Y:inf U:inf V:inf *:inf size=     762kB time=00:00:09.93 bitrate= 628.4kbits/s speed=4.34x    
video:762kB audio:0kB subtitle:0kB other streams:0kB global headers:0kB muxing overhead: 0.000000%
[libx264 @ 0x55d7bdc41c60] frame I:2     Avg QP:23.14  size: 23256  PSNR Mean Y:43.98 U:47.36 V:50.10 Avg:45.04 Global:44.95
[libx264 @ 0x55d7bdc41c60] frame P:76    Avg QP:24.22  size:  6748  PSNR Mean Y:42.13 U:46.72 V:49.29 Avg:43.33 Global:43.29
[libx264 @ 0x55d7bdc41c60] frame B:222   Avg QP:29.44  size:   995  PSNR Mean Y:40.89 U:46.41 V:49.13 Avg:42.20 Global:42.19
[libx264 @ 0x55d7bdc41c60] consecutive B-frames:  1.3%  0.0%  0.0% 98.7%
[libx264 @ 0x55d7bdc41c60] mb I  I16..4: 30.1% 49.7% 20.2%
[libx264 @ 0x55d7bdc41c60] mb P  I16..4:  1.6%  1.0%  0.2%  P16..4: 29.2% 23.2% 12.9%  0.0%  0.0%    skip:31.8%
[libx264 @ 0x55d7bdc41c60] mb B  I16..4:  0.0%  0.1%  0.0%  B16..8: 29.6%  8.3%  0.8%  direct: 0.7%  skip:60.6%  L0:38.1% L1:45.4% BI:16.5%
[libx264 @ 0x55d7bdc41c60] 8x8 transform intra:42.4% inter:64.4%
[libx264 @ 0x55d7bdc41c60] coded y,uvDC,uvAC intra: 46.7% 56.1% 24.3% inter: 12.0% 7.8% 0.3%
[libx264 @ 0x55d7bdc41c60] i16 v,h,dc,p: 28% 38% 15% 18%
[libx264 @ 0x55d7bdc41c60] i8 v,h,dc,ddl,ddr,vr,hd,vl,hu: 20% 24% 16%  5%  3%  3%  3% 17%  9%
[libx264 @ 0x55d7bdc41c60] i4 v,h,dc,ddl,ddr,vr,hd,vl,hu: 28% 21% 12%  5%  3%  4%  3% 22%  4%
[libx264 @ 0x55d7bdc41c60] i8c dc,h,v,p: 44% 25% 20% 11%
[libx264 @ 0x55d7bdc41c60] Weighted P-Frames: Y:1.3% UV:0.0%
[libx264 @ 0x55d7bdc41c60] ref P L0: 58.2% 20.9% 18.0%  2.9%  0.0%
[libx264 @ 0x55d7bdc41c60] ref B L0: 91.3%  7.9%  0.8%
[libx264 @ 0x55d7bdc41c60] ref B L1: 93.6%  6.4%
[libx264 @ 0x55d7bdc41c60] PSNR Mean Y:41.220 U:46.498 V:49.178 Avg:42.508 Global:42.455 kb/s:624.22
